<svg width="102" height="50" viewBox="0 0 102 50" fill="none" xmlns="http://www.w3.org/2000/svg">
<path d="M24.1675 1.38618L22.7694 0H0V49.9965H6.81599V28.3504H16.1882L23.9275 43.232V49.9965H30.7434V41.9856L29.7654 40.0843L23.4314 27.7803L29.8219 21.3009L30.7452 20.3643V7.90107L28.994 6.16613L24.1693 1.38441L24.1675 1.38618ZM23.8551 17.5282L19.8795 21.6585H6.81422V6.7769H19.8071L23.8551 10.7637V17.5282Z" fill="black"/>
<path d="M95.2855 1.25518L94.0374 0H80.5732C80.5643 0 80.552 0 80.5431 0H79.1768L78.2376 0.91704C78.2376 0.91704 78.2199 0.931204 78.2129 0.940056L78.1635 0.991397L77.6038 1.53843L77.6303 1.53489L71.2557 8.02677V23.4908L73.1499 24.1494L95.1125 31.7902V39.146L91.2076 43.2868H82.0472L78.1423 39.146V35.4336C78.1423 35.4088 78.137 35.3875 78.1352 35.3645V34.0775H71.2539V42.0759L72.4455 43.2744L78.2111 49.0723L79.1344 50H94.0304L94.9536 49.0847C94.9536 49.0847 94.9642 49.0759 94.9695 49.0706L95.0737 48.9661L95.2467 48.7944H95.2432L100.214 43.7967L101.999 42.1025V26.5942L100.721 26.1498L78.1423 18.2948L78.0717 10.8682L81.9766 6.72733H91.2782L95.1125 10.8682V15.9385H101.999V8.0126L100.79 6.79637L95.2855 1.25872V1.25518Z" fill="black"/>
<path d="M36.9791 0.010498C36.1265 0.010498 35.5633 0.010498 35.6304 0.010498V6.70419H47.5588V49.9963H54.3748V6.70419H66.3756V0.010498H36.9791Z" fill="black"/>
</svg>
