<svg width="298" height="50" viewBox="0 0 298 50" fill="none" xmlns="http://www.w3.org/2000/svg">
<path d="M36.8604 0.0136719C36.0129 0.0136719 35.4501 0.0136719 35.5171 0.0136719V6.70594H47.4088V49.9934H54.2022V6.70594H66.1643V0.0136719H36.8637H36.8604Z" fill="black"/>
<path d="M24.0916 1.38862L22.6981 0.00366211H0V49.9935H6.79335V28.3498H16.1359L23.8504 43.2304V49.9935H30.6438V41.9836L29.669 40.0831L23.3547 27.7803L29.726 21.3003L30.6471 20.3635V7.90229L28.9019 6.16688L24.0916 1.38525V1.38862ZM23.7801 17.5296L19.8173 21.6575H6.79335V6.7768H19.7436L23.7767 10.7632V17.5262L23.7801 17.5296Z" fill="black"/>
<path d="M101.676 42.0979V26.5905L100.403 26.1457L77.8955 18.2908L77.8252 10.864L81.7176 6.72258H90.9898L94.8119 10.864V15.932H101.676V8.00645L100.47 6.78998L94.9827 1.25354L93.74 0H80.3207C80.3207 0 80.3007 0 80.2906 0H78.9306L77.996 0.916564C77.996 0.916564 77.9792 0.930035 77.9725 0.940144L77.9223 0.990698L77.3629 1.53659H77.3897L71.0352 8.0233V23.4869L72.9244 24.1474L94.8152 31.7866V39.1393L90.9228 43.2807H81.7913L77.8989 39.1393V35.4259C77.8989 35.4023 77.8922 35.3787 77.8922 35.3551V34.0679H71.0352V42.0642L72.2243 43.2638L77.9725 49.0631L78.8937 49.9898H93.74L94.6612 49.0766C94.6612 49.0766 94.6712 49.0665 94.6746 49.0631L94.7784 48.9586L94.9526 48.7868H94.9492L99.9036 43.7895L101.682 42.0945" fill="black"/>
<path d="M184.392 1.38813L182.999 0.00317383H160.301V49.993H167.094V28.3493H176.437L184.151 43.2299V49.993H190.945V41.9831L189.97 40.0826L183.655 27.7798L190.027 21.2998L190.948 20.363V7.9018L189.203 6.16639L184.392 1.38476V1.38813ZM184.081 17.5291L180.118 21.657H167.094V6.77631H180.044L184.078 10.7627V17.5257L184.081 17.5291Z" fill="black"/>
<path d="M155.431 14.6011V9.33085C155.431 9.3039 155.428 9.27693 155.428 9.25335H155.431V7.98633L154.346 6.88443V6.89117L149.043 1.49288L147.583 0.00683594H132.629L131.715 0.933509L131.708 0.940244L130.455 2.21064H130.465L127.239 5.48937L127.246 5.46241L124.777 7.96275V42.0138L126.489 43.7559L131.715 49.0733C131.721 49.0801 131.731 49.0868 131.738 49.0935L132.629 50H145.898H147.512L148.973 48.5308L153.803 43.6649V43.6717L155.431 42.0272V20.8047H141.767V27.5711H148.634V39.3214L144.742 43.3077H135.54L131.577 39.3214V10.6956L135.54 6.70921H144.742L148.634 10.6956V15.9658H155.431V14.6112V14.6011Z" fill="black"/>
<path d="M225.381 6.88752L220.078 1.48922L218.618 0.00317383H203.664L202.75 0.929847L202.743 0.936593L201.49 2.20697H201.5L198.275 5.48571L198.281 5.45875L195.812 7.95909V42.0101L197.524 43.7522L202.75 49.0697C202.757 49.0764 202.767 49.0831 202.773 49.0899L203.664 49.9963H216.933H218.547L220.008 48.5271L224.838 43.6613V43.668L226.466 42.0236V9.33393C226.466 9.30697 226.463 9.28002 226.463 9.25643H226.466V7.98941L225.381 6.88752ZM219.67 11.5445V39.3109L215.777 43.2973H206.575L202.613 39.3109V10.6852L206.575 6.69881H215.777L219.67 10.6852V11.5445Z" fill="black"/>
<path d="M257.108 0.00317383H255.182V10.6852V11.5445V39.311L251.289 43.2973H242.088L238.125 39.311V0.00317383H231.328V42.0067L233.04 43.7489L238.266 49.0663C238.272 49.073 238.282 49.0798 238.289 49.0865L239.18 49.993H252.448H254.063L255.524 48.5238L260.354 43.6579V43.6646L261.982 42.0202V9.33057C261.982 9.30361 261.979 9.27665 261.979 9.25306H261.982V0.00317383H257.115H257.108Z" fill="black"/>
<path d="M297.498 7.9018L296.576 6.97512L296.087 6.48315L296.074 6.46967L294.228 4.61632L290.557 0.929847L289.636 0.00317383H266.844V49.993H273.637V48.6788C273.637 48.6788 273.637 48.6518 273.637 48.6383V28.3425H289.706L290.617 27.4158L296.097 21.8457L297.501 20.4203V18.7894L297.494 9.49231L297.501 9.49905V7.89843L297.498 7.9018ZM290.694 17.6639L286.802 21.6503H273.634V6.7662H286.728L290.691 10.7526V17.6605L290.694 17.6639Z" fill="black"/>
</svg>
