<svg width="102" height="50" viewBox="0 0 102 50" fill="none" xmlns="http://www.w3.org/2000/svg">
<path d="M101.771 0V50H0V0H101.771ZM81.8193 40.1016V44.8848H96.6484V40.1016H81.8193ZM5.12012 5.11426V40.0977H9.90332V24.9512H16.4805L21.9111 35.3643V40.0977H26.6934V34.4922L26.0078 33.1621L21.5635 24.5527L26.0479 20.0186L26.6953 19.3643V11.5986H26.6934V10.6436L25.4648 9.42969L22.0801 6.08398L21.0977 5.11426H5.12012ZM30.124 5.12207V9.80566H38.4951V40.0977H43.2773V9.80566H51.6982V5.12207H30.124ZM60.6846 5.11426L60.0254 5.75684C60.0201 5.76216 60.0101 5.77127 60.0088 5.77246L59.9727 5.80762L59.5801 6.19043L59.5986 6.18848L55.124 10.7305V21.5508L56.4541 22.0117L71.8652 27.3584V32.5049L69.125 35.4033H62.6973L59.957 32.5049V29.9062C59.957 29.8894 59.9531 29.8753 59.9531 29.8584V28.957H55.124V34.5527L55.9609 35.3916L60.0068 39.4482L60.6543 40.0977H71.1074L71.7549 39.457C71.7577 39.4528 71.7656 39.4473 71.7656 39.4473L71.8379 39.375L71.96 39.2549H71.957L75.4453 35.7578L76.6982 34.5713V23.7197L75.8008 23.4082L59.957 17.9121L59.9072 12.7158L62.6475 9.81836H69.1748L71.8652 12.7158V16.2637H76.6982V10.7188L75.8496 9.86816L71.9863 5.99316L71.1104 5.11426H60.6846ZM19.0234 9.85547L21.8643 12.6455V17.3779L19.0732 20.2676H9.90625V9.85547H19.0234Z" fill="black"/>
</svg>
