<svg width="128" height="50" viewBox="0 0 128 50" fill="none" xmlns="http://www.w3.org/2000/svg">
<path d="M127.518 0V50H0V0H127.518ZM107.449 40.1016V44.8848H122.366V40.1016H107.449ZM30.3027 5.12598V9.80957H38.7207V40.0986H43.5322V9.80957H52.001V5.12598H30.3027ZM61.0371 5.12012L60.374 5.7627C60.3685 5.76812 60.3585 5.77737 60.3574 5.77832L60.3213 5.81348L59.9258 6.19629L59.9443 6.19336L55.4453 10.7344V21.5537L56.7832 22.0146L72.2842 27.3604V32.5059L69.5273 35.4043H63.0635L60.3066 32.5059V29.9082C60.3066 29.8911 60.3027 29.8765 60.3027 29.8594V28.959H55.4463V34.5547L56.2891 35.3926L60.3584 39.4502L61.0098 40.0986H71.5234L72.1748 39.459C72.1777 39.4547 72.1855 39.4482 72.1855 39.4482L72.2588 39.376L72.3818 39.2568H72.3789L75.8867 35.7588L77.1475 34.5732V23.7227L76.2451 23.4111L60.3086 17.916L60.2578 12.7207L63.0146 9.82227H69.5791L72.2852 12.7207V16.2676H77.1475V11.6719L77.1445 11.6729V10.7236L76.291 9.87207L72.4062 5.99902L71.5254 5.12012H61.0371ZM86.1543 5.11914L85.5029 5.77051L84.6162 6.65918L84.624 6.65625L82.3398 8.9541L82.3438 8.93555L80.5957 10.6865V34.5137L81.8066 35.7305L85.5068 39.4512C85.5108 39.4565 85.521 39.4648 85.5225 39.4658L86.1533 40.0986H96.6914L97.7246 39.0703L101.143 35.665V35.6689L102.299 34.5186V19.6689H92.624V24.4023H97.4854V32.624L94.7295 35.4141H88.2139L85.4072 32.624V12.5938L88.2139 9.80371H94.7295L97.4854 12.5938V16.2812H102.297V11.6475C102.297 11.629 102.294 11.6103 102.294 11.5918H102.3V10.7031L101.532 9.93164V9.93652L97.7783 6.15918L96.7422 5.11914H86.1543ZM5.15039 5.11914V40.0977H9.96191V24.9531H16.5771L22.04 35.3643V40.0977H26.8516V34.4932L26.1611 33.1641L21.6904 24.5557L26.2012 20.0215L26.8525 19.3672V11.6035H26.8496V10.6475L25.6143 9.43359L22.209 6.08887L21.2217 5.11914H5.15039ZM19.1357 9.85938L21.9922 12.6494V17.3828L19.1855 20.2705H9.96484V9.85938H19.1357Z" fill="black"/>
</svg>
